# xmcd
#
# Track frame offsets:
#	150
#	14742
#	31976
#	49912
#	67483
#	89715
#	105634
#	120284
#	137200
#	152390
#	173150
#	188233
#	203056
#	216205
#
# Disc length: 3108 seconds
#
# Revision: 1
# Processed by: cddbd v1.5.1PL2 Copyright (c) Steve Scherf et al.
# Submitted via: audiograbber 1.83.01
#
DISCID=cc0c220e
DTITLE=Redneck The Band - Beyond This Road
DYEAR=2005
DGENRE=Country
TTITLE0=Tommy The Trainmman
TTITLE1=I Fell In Love With The Devil Last Night
TTITLE2=Beyond This Road
TTITLE3=A Few More Bridges Left To Burn
TTITLE4=Ode To Robbie Hawkins
TTITLE5=Breakin' Charlie's Heart
TTITLE6=I Am Not The Same
TTITLE7=Paco El Guapo
TTITLE8=My Angel Angela
TTITLE9=Drink Myself Down
TTITLE10=There's Always Tomorrow
TTITLE11=Take My Memory With You
TTITLE12=Here Comes The Train
TTITLE13=Willin'
EXTD=
EXTT0=
EXTT1=
EXTT2=
EXTT3=
EXTT4=
EXTT5=
EXTT6=
EXTT7=
EXTT8=
EXTT9=
EXTT10=
EXTT11=
EXTT12=
EXTT13=
PLAYORDER=
